<svg width="32" height="24" viewBox="0 0 32 24" fill="none" xmlns="http://www.w3.org/2000/svg">
<g clip-path="url(#clip0_168_400)">
<path d="M22 6C22 4.4087 21.3679 2.88258 20.2426 1.75736C19.1174 0.632141 17.5913 0 16 0C14.4087 0 12.8826 0.632141 11.7574 1.75736C10.6321 2.88258 10 4.4087 10 6H4V21C4 21.7956 4.31607 22.5587 4.87868 23.1213C5.44129 23.6839 6.20435 24 7 24H25C25.7956 24 26.5587 23.6839 27.1213 23.1213C27.6839 22.5587 28 21.7956 28 21V6H22ZM16 2C17.0609 2 18.0783 2.42143 18.8284 3.17157C19.5786 3.92172 20 4.93913 20 6H12C12 4.93913 12.4214 3.92172 13.1716 3.17157C13.9217 2.42143 14.9391 2 16 2Z" fill="#333333"/>
</g>
<defs>
<clipPath id="clip0_168_400">
<rect width="24" height="24" fill="white" transform="translate(4)"/>
</clipPath>
</defs>
</svg>
