<svg width="32" height="24" viewBox="0 0 32 24" fill="none" xmlns="http://www.w3.org/2000/svg">
<g clip-path="url(#clip0_168_403)">
<path d="M20.043 14.0006H11.957C10.6428 14.0022 9.3829 14.525 8.45363 15.4542C7.52435 16.3835 7.00159 17.6434 7 18.9576V24.0006H25V18.9576C24.9984 17.6434 24.4756 16.3835 23.5464 15.4542C22.6171 14.525 21.3572 14.0022 20.043 14.0006Z" fill="#333333"/>
<path d="M16 12C19.3137 12 22 9.31371 22 6C22 2.68629 19.3137 0 16 0C12.6863 0 10 2.68629 10 6C10 9.31371 12.6863 12 16 12Z" fill="#333333"/>
</g>
<defs>
<clipPath id="clip0_168_403">
<rect width="24" height="24" fill="white" transform="translate(4)"/>
</clipPath>
</defs>
</svg>
